{
  "accessors": [
    {
      "bufferView": 2,
      "componentType": 5126,
      "count": 284,
      "max": [
        0.061594158411026001,
        0.20290020108222961,
        1.0403048992156982
      ],
      "min": [
        -0.06159481406211853,
        -0.20289966464042664,
        -1.0403048992156982
      ],
      "type": "VEC3"
    },
    {
      "bufferView": 2,
      "byteOffset": 3408,
      "componentType": 5126,
      "count": 284,
      "max": [
        1,
        1,
        1
      ],
      "min": [
        -1,
        -1,
        -1
      ],
      "type": "VEC3"
    },
    {
      "bufferView": 3,
      "componentType": 5126,
      "count": 284,
      "max": [
        7.8438417403958738e-05,
        0,
        1,
        1
      ],
      "min": [
        -8.5734704043716192e-05,
        0,
        -1,
        -1
      ],
      "type": "VEC4"
    },
    {
      "bufferView": 1,
      "componentType": 5126,
      "count": 284,
      "max": [
        0.9962536096572876,
        0.99711036682128906
      ],
      "min": [
        0.38318514823913574,
        0.65902161598205566
      ],
      "type": "VEC2"
    },
    {
      "bufferView": 0,
      "componentType": 5125,
      "count": 804,
      "max": [
        283
      ],
      "min": [
        0
      ],
      "type": "SCALAR"
    },
    {
      "bufferView": 2,
      "byteOffset": 6816,
      "componentType": 5126,
      "count": 925,
      "max": [
        2.2596499919891357,
        3.1132299900054932,
        1.3225899934768677
      ],
      "min": [
        -4.0512399673461914,
        -0.18804000318050385,
        -1.3225899934768677
      ],
      "type": "VEC3"
    },
    {
      "bufferView": 2,
      "byteOffset": 17916,
      "componentType": 5126,
      "count": 925,
      "max": [
        0.99711376428604126,
        0.99997925758361816,
        0.9959566593170166
      ],
      "min": [
        -0.99994736909866333,
        -0.99978101253509521,
        -0.99595677852630615
      ],
      "type": "VEC3"
    },
    {
      "bufferView": 3,
      "byteOffset": 4544,
      "componentType": 5126,
      "count": 925,
      "max": [
        0.99335896968841553,
        0.99783557653427124,
        0.99980264902114868,
        1
      ],
      "min": [
        -0.99296528100967407,
        -0.98909229040145874,
        -0.99991440773010254,
        -1
      ],
      "type": "VEC4"
    },
    {
      "bufferView": 1,
      "byteOffset": 2272,
      "componentType": 5126,
      "count": 925,
      "max": [
        0.9774630069732666,
        1.000749945640564
      ],
      "min": [
        0.039827898144721985,
        0.0086574098095297813
      ],
      "type": "VEC2"
    },
    {
      "bufferView": 0,
      "byteOffset": 3216,
      "componentType": 5125,
      "count": 4824,
      "max": [
        924
      ],
      "min": [
        0
      ],
      "type": "SCALAR"
    },
    {
      "bufferView": 4,
      "componentType": 5126,
      "count": 62,
      "max": [
        8.3333330154418945
      ],
      "min": [
        0.041666667908430099
      ],
      "type": "SCALAR"
    },
    {
      "bufferView": 5,
      "componentType": 5126,
      "count": 62,
      "max": [
        -3.5866072177886963,
        5.4606103897094727,
        0.24719516932964325
      ],
      "min": [
        -3.5866072177886963,
        2.2781684398651123,
        0.24719516932964325
      ],
      "type": "VEC3"
    },
    {
      "bufferView": 4,
      "byteOffset": 248,
      "componentType": 5126,
      "count": 69,
      "max": [
        8.3333330154418945
      ],
      "min": [
        0.041666667908430099
      ],
      "type": "SCALAR"
    },
    {
      "bufferView": 5,
      "byteOffset": 744,
      "componentType": 5126,
      "count": 69,
      "max": [
        1.5750604867935181,
        1.5750604867935181,
        1.5750604867935181
      ],
      "min": [
        9.999999960041972e-13,
        9.999999960041972e-13,
        9.999999960041972e-13
      ],
      "type": "VEC3"
    },
    {
      "bufferView": 4,
      "byteOffset": 524,
      "componentType": 5126,
      "count": 31,
      "max": [
        8.3333330154418945
      ],
      "min": [
        0.041666667908430099
      ],
      "type": "SCALAR"
    },
    {
      "bufferView": 6,
      "componentType": 5126,
      "count": 31,
      "max": [
        0.13507208228111267,
        0,
        0,
        1
      ],
      "min": [
        -0.1526324599981308,
        0,
        0,
        0.98828303813934326
      ],
      "type": "VEC4"
    }
  ],
  "animations": [
    {
      "channels": [
        {
          "sampler": 0,
          "target": {
            "node": 6,
            "path": "translation"
          }
        },
        {
          "sampler": 1,
          "target": {
            "node": 6,
            "path": "scale"
          }
        },
        {
          "sampler": 2,
          "target": {
            "node": 6,
            "path": "rotation"
          }
        }
      ],
      "name": "Take 001",
      "samplers": [
        {
          "input": 10,
          "interpolation": "LINEAR",
          "output": 11
        },
        {
          "input": 12,
          "interpolation": "LINEAR",
          "output": 13
        },
        {
          "input": 14,
          "interpolation": "LINEAR",
          "output": 15
        }
      ]
    }
  ],
  "asset": {
    "extras": {
      "author": "Mike Nixon (https://sketchfab.com/MichaelNixon)",
      "license": "CC-BY-4.0 (http://creativecommons.org/licenses/by/4.0/)",
      "source": "https://sketchfab.com/3d-models/deal-with-it-doge-2be6ce1a55764adcbebe8fe8184254d6",
      "title": "Deal With It Doge"
    },
    "generator": "Sketchfab-7.32.0",
    "version": "2.0"
  },
  "bufferViews": [
    {
      "buffer": 0,
      "byteLength": 22512,
      "byteOffset": 0,
      "name": "floatBufferViews",
      "target": 34963
    },
    {
      "buffer": 0,
      "byteLength": 9672,
      "byteOffset": 22512,
      "byteStride": 8,
      "name": "floatBufferViews",
      "target": 34962
    },
    {
      "buffer": 0,
      "byteLength": 29016,
      "byteOffset": 32184,
      "byteStride": 12,
      "name": "floatBufferViews",
      "target": 34962
    },
    {
      "buffer": 0,
      "byteLength": 19344,
      "byteOffset": 61200,
      "byteStride": 16,
      "name": "floatBufferViews",
      "target": 34962
    },
    {
      "buffer": 0,
      "byteLength": 648,
      "byteOffset": 80544,
      "name": "floatBufferViews"
    },
    {
      "buffer": 0,
      "byteLength": 1572,
      "byteOffset": 81192,
      "byteStride": 12,
      "name": "floatBufferViews"
    },
    {
      "buffer": 0,
      "byteLength": 496,
      "byteOffset": 82764,
      "byteStride": 16,
      "name": "floatBufferViews"
    }
  ],
  "buffers": [
    {
      "byteLength": 83260,
      "uri": "scene.bin"
    }
  ],
  "images": [
    {
      "uri": "textures/Deal_With_It_Mat_baseColor.png"
    }
  ],
  "materials": [
    {
      "doubleSided": true,
      "emissiveFactor": [
        1,
        1,
        1
      ],
      "emissiveTexture": {
        "index": 0,
        "texCoord": 0
      },
      "name": "Deal_With_It_Mat",
      "pbrMetallicRoughness": {
        "baseColorFactor": [
          1,
          1,
          1,
          1
        ],
        "baseColorTexture": {
          "index": 0,
          "texCoord": 0
        },
        "metallicFactor": 0,
        "roughnessFactor": 0.88852896339999998
      }
    }
  ],
  "meshes": [
    {
      "name": "Glasses_Deal_With_It_Mat_0",
      "primitives": [
        {
          "attributes": {
            "NORMAL": 1,
            "POSITION": 0,
            "TANGENT": 2,
            "TEXCOORD_0": 3
          },
          "indices": 4,
          "material": 0,
          "mode": 4
        }
      ]
    },
    {
      "name": "DealWithItDoge_polySurface75_polySurface75_Deal_With_It_Mat_0",
      "primitives": [
        {
          "attributes": {
            "NORMAL": 6,
            "POSITION": 5,
            "TANGENT": 7,
            "TEXCOORD_0": 8
          },
          "indices": 9,
          "material": 0,
          "mode": 4
        }
      ]
    }
  ],
  "nodes": [
    {
      "children": [
        1
      ],
      "name": "RootNode (gltf orientation matrix)",
      "rotation": [
        -0.70710678118654746,
        -0,
        -0,
        0.70710678118654757
      ]
    },
    {
      "children": [
        2
      ],
      "name": "RootNode (model correction matrix)"
    },
    {
      "children": [
        3
      ],
      "matrix": [
        1,
        0,
        0,
        0,
        0,
        0,
        1,
        0,
        0,
        -1,
        0,
        0,
        0,
        0,
        0,
        1
      ],
      "name": "493915c69f8c4c18a92e8ae40318e5b5.fbx"
    },
    {
      "children": [
        4
      ],
      "name": ""
    },
    {
      "children": [
        5,
        8
      ],
      "name": "RootNode"
    },
    {
      "children": [
        6
      ],
      "name": "Doge"
    },
    {
      "children": [
        7
      ],
      "name": "Glasses",
      "scale": [
        1.1921625137329102,
        1.1792416572570801,
        1.1877557039260864
      ],
      "translation": [
        -3.5866072177886963,
        5.1123995780944824,
        0.24719516932964325
      ]
    },
    {
      "mesh": 0,
      "name": "Glasses_Deal_With_It_Mat_0"
    },
    {
      "children": [
        9
      ],
      "name": "DealWithItDoge_polySurface75_polySurface75"
    },
    {
      "mesh": 1,
      "name": "DealWithItDoge_polySurface75_polySurface75_Deal_With_It_Mat_0"
    }
  ],
  "samplers": [
    {
      "magFilter": 9729,
      "minFilter": 9987,
      "wrapS": 10497,
      "wrapT": 10497
    }
  ],
  "scene": 0,
  "scenes": [
    {
      "name": "OSG_Scene",
      "nodes": [
        0
      ]
    }
  ],
  "textures": [
    {
      "sampler": 0,
      "source": 0
    }
  ]
}

